<svg width="142" height="35" xmlns="http://www.w3.org/2000/svg"><title>logo</title><path d="M139.36 20.667v-.065c0-3.403-2.954-5.618-6.1-5.618-3.146 0-5.747 2.183-5.747 5.586v.064c0 3.339 2.665 5.65 5.746 5.65 3.147 0 6.1-2.279 6.1-5.617m-13.002 12.327a1.144 1.144 0 0 1-.642-1.027c0-.546.546-1.092 1.124-1.092.225 0 .385.064.546.16 1.733 1.156 3.723 1.798 5.874 1.798 3.66 0 6.036-2.022 6.036-5.907v-1.958c-1.445 1.927-3.467 3.5-6.517 3.5-3.98 0-7.8-2.986-7.8-7.77v-.064c0-4.847 3.851-7.833 7.8-7.833 3.114 0 5.136 1.541 6.485 3.339v-1.894c0-.674.513-1.252 1.22-1.252.706 0 1.251.578 1.251 1.252v12.616c0 2.569-.77 4.527-2.118 5.875-1.477 1.477-3.692 2.215-6.325 2.215a13 13 0 0 1-6.934-1.958m-17.784-18.748c0-.674.545-1.252 1.22-1.252.706 0 1.251.546 1.251 1.252v1.798c1.092-1.798 2.825-3.243 5.683-3.243 4.013 0 6.356 2.697 6.356 6.645v9.214c0 .706-.546 1.252-1.22 1.252a1.233 1.233 0 0 1-1.252-1.252v-8.604c0-3.081-1.67-5.008-4.59-5.008-2.857 0-4.977 2.087-4.977 5.201v8.41c0 .707-.513 1.253-1.22 1.253a1.233 1.233 0 0 1-1.251-1.252V14.246zm-6.199 0c0-.674.545-1.252 1.22-1.252.706 0 1.251.546 1.251 1.252V28.66c0 .706-.513 1.252-1.22 1.252a1.233 1.233 0 0 1-1.251-1.252V14.246zm-.225-6.293c0-.802.642-1.315 1.445-1.315.834 0 1.477.513 1.477 1.315v.418c0 .77-.643 1.316-1.477 1.316-.803 0-1.445-.545-1.445-1.316v-.418zM84.426 21.405v.064c0 3.916 2.728 6.42 5.842 6.42 3.082 0 6.003-2.6 6.003-6.42v-.064c0-3.82-2.921-6.389-6.003-6.389-3.21 0-5.842 2.376-5.842 6.389zm14.22 7.255c0 .707-.545 1.252-1.219 1.252a1.233 1.233 0 0 1-1.252-1.252v-2.247c-1.348 1.99-3.307 3.692-6.356 3.692-3.981 0-7.93-3.146-7.93-8.604v-.064c0-5.425 3.949-8.636 7.93-8.636 3.082 0 5.072 1.67 6.356 3.532V7.408c0-.706.514-1.252 1.22-1.252s1.252.546 1.252 1.252V28.66zm-33.129-7.255v.064c0 3.916 2.73 6.42 5.843 6.42 3.082 0 6.004-2.6 6.004-6.42v-.064c0-3.82-2.922-6.389-6.004-6.389-3.21 0-5.843 2.376-5.843 6.389zM79.74 28.66c0 .707-.546 1.252-1.22 1.252a1.233 1.233 0 0 1-1.252-1.252v-2.247c-1.348 1.99-3.307 3.692-6.356 3.692-3.981 0-7.93-3.146-7.93-8.604v-.064c0-5.425 3.949-8.636 7.93-8.636 3.082 0 5.072 1.67 6.356 3.532V7.408c0-.706.514-1.252 1.22-1.252s1.252.546 1.252 1.252V28.66zm-20.614-8.122c-.257-3.018-1.99-5.65-5.297-5.65-2.89 0-5.073 2.408-5.393 5.65h10.69zm-4.912 9.599c-4.558 0-8.282-3.5-8.282-8.636v-.064c0-4.783 3.37-8.636 7.96-8.636 4.913 0 7.706 4.013 7.706 8.411a1.15 1.15 0 0 1-1.156 1.156H48.436c.353 3.595 2.889 5.618 5.842 5.618 2.055 0 3.564-.803 4.784-1.926.192-.161.417-.29.706-.29.61 0 1.091.482 1.091 1.06 0 .289-.128.578-.385.803-1.573 1.509-3.435 2.504-6.26 2.504zM29.579 8.154l-5.862 17.873L17.52 8.18c-.193-.579-.674-1.06-1.316-1.06-.707 0-1.317.61-1.317 1.284 0 .193.064.385.129.578l7.191 19.968c.225.674.674 1.091 1.316 1.091h.193c.642 0 1.091-.45 1.316-1.09l5.81-17.272 5.843 17.271c.225.642.675 1.091 1.316 1.091h.193c.642 0 1.092-.45 1.316-1.09l7.192-19.97c.064-.192.16-.416.16-.609 0-.642-.61-1.252-1.284-1.252-.61 0-1.027.417-1.22.995L38.13 26.028 32.255 8.115a2.068 2.068 0 0 0-.02-.058c1.258-2.105 1.727-3.954 1.437-5.44C33.363 1.02 32.16-.012 30.74 0c-1.426.012-2.602 1.075-2.85 2.685-.234 1.505.32 3.363 1.689 5.47zm2.186-5.167c-.136-.694-.547-1.046-1.01-1.043-.453.004-.838.352-.944 1.038-.135.87.186 2.08 1.053 3.556.8-1.479 1.07-2.686.9-3.55zM13.194 20.538c-.256-3.018-1.99-5.65-5.297-5.65-2.889 0-5.072 2.408-5.393 5.65h10.69zm-4.911 9.599C3.724 30.137 0 26.637 0 21.5v-.064C0 16.654 3.371 12.8 7.961 12.8c4.912 0 7.705 4.013 7.705 8.411a1.15 1.15 0 0 1-1.155 1.156H2.504c.353 3.595 2.89 5.618 5.843 5.618 2.054 0 3.563-.803 4.783-1.926.193-.161.417-.29.706-.29.61 0 1.092.482 1.092 1.06 0 .289-.129.578-.385.803-1.573 1.509-3.435 2.504-6.26 2.504z" fill="#766270" fill-rule="evenodd"/></svg>