<svg xmlns="http://www.w3.org/2000/svg" xmlns:xlink="http://www.w3.org/1999/xlink" width="186" height="60" viewBox="0 0 186 60">
  <defs>
    <clipPath id="clip-path">
      <rect id="Rectangle_53024" data-name="Rectangle 53024" width="186" height="60" transform="translate(0.061)" fill="#323a45" stroke="#707070" stroke-width="1"/>
    </clipPath>
  </defs>
  <g id="yahoo_finance" transform="translate(-0.061)" opacity="0.44" clip-path="url(#clip-path)">
    <g id="Group_106619" data-name="Group 106619" transform="translate(1.498 15.286)">
      <g id="Group_106618" data-name="Group 106618" transform="translate(0 0)">
        <path id="Union_724" data-name="Union 724" d="M156.562,28.878A6.645,6.645,0,1,1,160.257,30,6.625,6.625,0,0,1,156.562,28.878Zm2.162-7.822a2.755,2.755,0,1,0,1.532-.468A2.749,2.749,0,0,0,158.724,21.056Zm13.38,5.3h.1l-.051,0Zm-84.7-.766a9.049,9.049,0,1,1,12.635-8.314v9.051H95.363V25.19a9.019,9.019,0,0,1-3.934,1.125c-.151.008-.3.011-.453.011A9.041,9.041,0,0,1,87.4,25.588Zm2.732-12.6a4.356,4.356,0,1,0,.856-.085A4.228,4.228,0,0,0,90.134,12.984ZM143.72,26.326V14.96a6.744,6.744,0,0,1,6.733-6.73h3.292V12.9h-3.292A2.054,2.054,0,0,0,148.4,14.96V26.326Zm-13.27-.1a9.06,9.06,0,1,1,10.382-8.975V26.29H136.16v-1.1a9.064,9.064,0,0,1-5.711,1.04Zm.479-13.243a4.374,4.374,0,1,0,5.232,4.293v0a4.373,4.373,0,0,0-5.232-4.288Zm-15.3,13.34V25.19a9.012,9.012,0,0,1-3.474,1.087l-.041,0c-.285.027-.571.047-.863.047,0,0-.011,0-.02,0l-.018,0a9.049,9.049,0,0,1,0-18.1h.038l.072,0c.224,0,.444.016.666.034.116.011.23.02.344.036s.207.029.31.045a9.031,9.031,0,0,1,2.946.993V.179h4.674l.036,26.146Zm-7.51-12.143a4.375,4.375,0,1,0,7.469,3.1v-.007a4.376,4.376,0,0,0-7.469-3.09ZM70.875,26.323V15a6.739,6.739,0,0,1,6.733-6.73h3.287v4.674H77.607A2.062,2.062,0,0,0,75.549,15V26.323Zm-6,0V16.089a5.315,5.315,0,0,0-9.078-3.768,5.307,5.307,0,0,0-1.551,3.768V26.323h-2.7V.179h2.7V10.1a8,8,0,0,1,13.315,5.635h.012V26.323ZM38.816,25.77A9.108,9.108,0,1,1,48.9,11.341l.087.105-1.916,1.918-.105-.13a6.413,6.413,0,1,0,0,7.963l.105-.13,1.916,1.918-.087.105a9.112,9.112,0,0,1-10.089,2.68ZM17.636,25.4a9.106,9.106,0,1,1,13.109-8.185,8.951,8.951,0,0,1-.082,1.219l-.018.13H15.371A6.409,6.409,0,0,0,27,20.731l.044-.067h3.028l-.093.208a9.094,9.094,0,0,1-7.585,5.42c-.254.02-.5.031-.756.031A9.12,9.12,0,0,1,17.636,25.4ZM17.61,12.226a6.418,6.418,0,0,0-2.241,3.641H27.905a6.411,6.411,0,0,0-10.3-3.641Zm-8.785,14.1a5.721,5.721,0,0,1-5.717-5.718V10.8H0v-2.7H3.108V1.882H5.8V8.106h4.364v2.7H5.8v9.8a3.026,3.026,0,0,0,3.022,3.02h2.821v2.7Zm170.409-.213a18.256,18.256,0,0,0,.2-2.763A19.179,19.179,0,0,0,157.5,4.371V.161A23.684,23.684,0,0,1,160.257,0a23.34,23.34,0,0,1,23.189,26.111Zm-8.341,0a11.208,11.208,0,0,0,.352-2.763A10.985,10.985,0,0,0,157.5,12.721V8.451a15.007,15.007,0,0,1,2.76-.255,15.169,15.169,0,0,1,15.155,15.152,15.433,15.433,0,0,1-.251,2.763Z" transform="translate(0 0)" fill="#323a45"/>
      </g>
    </g>
  </g>
</svg>
